<svg id="Layer_1" data-name="Layer 1" xmlns="http://www.w3.org/2000/svg" viewBox="0 0 126.79 126.79"><defs><style>.cls-1{fill:none;stroke-linecap:round;}.cls-1,.cls-2{stroke:#4e4e50;stroke-miterlimit:10;stroke-width:1.5px;}.cls-2{fill:#fff;}.cls-3{fill:#98d4c2;}.cls-4{fill:#9c7a97;}.cls-5{fill:#888da7;}.cls-6{fill:#7fa2aa;}.cls-7{fill:#4e4e50;}</style></defs><line class="cls-1" x1="0.75" y1="0.75" x2="126.04" y2="126.04"/><line class="cls-1" x1="0.75" y1="126.04" x2="126.04" y2="0.75"/><circle class="cls-2" cx="63.42" cy="63.18" r="36.02"/><path class="cls-3" d="M97.52,80,85.19,59.41a1.76,1.76,0,0,0-2.29-.66l-1.49.74a.88.88,0,0,1-1-.16l-7-7a1.76,1.76,0,0,0-2.61.14L52.74,74.7V80Zm0,0" transform="translate(-8.6 -8.03)"/><path class="cls-4" d="M65,66.8,72.83,52a1.74,1.74,0,0,0-2,.53L52.74,74.7V80H65Zm0,0" transform="translate(-8.6 -8.03)"/><path class="cls-5" d="M71.43,63.39a1.77,1.77,0,0,0-2.28,0L65,66.8l-4.9-2.1a1.75,1.75,0,0,0-2.07.54L46.59,80H90.5Zm0,0" transform="translate(-8.6 -8.03)"/><path class="cls-6" d="M60.13,64.7a1.75,1.75,0,0,0-2.07.54L46.59,80H71.18L65,66.8Zm0,0" transform="translate(-8.6 -8.03)"/><path class="cls-5" d="M60.13,64.7a1.75,1.75,0,0,0-2.07.54L46.59,80h7l8.1-14.59Zm0,0" transform="translate(-8.6 -8.03)"/><path class="cls-7" d="M99.28,79.15H98L85.89,59a2.58,2.58,0,0,0-3.36-1L81,58.78l-7-7a2.6,2.6,0,0,0-2-.75,2.58,2.58,0,0,0-1.87,1L60.47,64h0a2.59,2.59,0,0,0-3.05.79L46.19,79.15H44.84a.82.82,0,0,0,0,1.64H99.28a.82.82,0,1,0,0-1.64ZM71.47,53a.94.94,0,0,1,.68-.34,1,1,0,0,1,.71.27L79.92,60l-.39,1.33a.82.82,0,0,0,.55,1,.66.66,0,0,0,.23,0,.83.83,0,0,0,.79-.59l.43-1.46,1.74-.87a.94.94,0,0,1,1.22.36L96.07,79.15H90.81L79,68.91l1.06-3.66a.82.82,0,1,0-1.57-.46l-.86,2.93L72,62.77a2.56,2.56,0,0,0-3.34,0L64.9,65.85,62,64.62Zm.23,26.13L66.05,67l3.63-3a.93.93,0,0,1,1.21,0L88.3,79.15Zm-13-13.41a.94.94,0,0,1,1.11-.28l4.61,2,5.47,11.72H55l3.71-6.68a.82.82,0,1,0-1.44-.8l-4.15,7.48H48.27Zm0,0" transform="translate(-8.6 -8.03)"/><path class="cls-4" d="M82.29,13.2l-7.8,18.2H69.42L61.64,13.2h5.57l4.94,11.85,5-11.85Z" transform="translate(-8.6 -8.03)"/><path class="cls-4" d="M72.63,125.15H69.82V130H64.67v-18.2H73a10.46,10.46,0,0,1,4.29.82A6.62,6.62,0,0,1,80.16,122a6.26,6.26,0,0,1-2.64,2.3L81.44,130H75.93Zm2.44-8.61a3.52,3.52,0,0,0-2.39-.7H69.82v5.33h2.86a3.57,3.57,0,0,0,2.39-.69,2.43,2.43,0,0,0,.81-2A2.48,2.48,0,0,0,75.07,116.54Z" transform="translate(-8.6 -8.03)"/><path class="cls-3" d="M112.85,60.18h8.6a12.15,12.15,0,0,1,5.31,1.12,8.38,8.38,0,0,1,3.58,3.17,9.68,9.68,0,0,1,0,9.62,8.32,8.32,0,0,1-3.58,3.17,12,12,0,0,1-5.31,1.12h-8.6Zm8.4,14.09A5.27,5.27,0,0,0,125,73a5.44,5.44,0,0,0,0-7.33,5.23,5.23,0,0,0-3.75-1.33H118v10Z" transform="translate(-8.6 -8.03)"/><path class="cls-3" d="M26.05,74.85H18.36l-1.43,3.53H11.67l8-18.2h5.07l8.06,18.2H27.48Zm-1.51-3.8L22.2,65.23l-2.34,5.82Z" transform="translate(-8.6 -8.03)"/></svg>