<?xml version="1.0" encoding="utf-8"?>
<!-- Generator: Adobe Illustrator 24.1.2, SVG Export Plug-In . SVG Version: 6.00 Build 0)  -->
<svg version="1.1" id="Layer_1" xmlns="http://www.w3.org/2000/svg" xmlns:xlink="http://www.w3.org/1999/xlink" x="0px" y="0px"
	 viewBox="0 0 144 144" style="enable-background:new 0 0 144 144;" xml:space="preserve">
<style type="text/css">
	.st0{fill:none;stroke:#98D4C2;stroke-width:1.5;stroke-linecap:round;stroke-miterlimit:10;}
	.st1{fill:#FFFFFF;stroke:#4E4E50;stroke-width:1.5;stroke-miterlimit:10;}
	.st2{fill:#98D4C2;}
	.st3{fill:#9C7A97;}
	.st4{fill:#888DA7;}
	.st5{fill:#7FA2AA;}
	.st6{fill:#4E4E50;}
	.st7{fill:none;}
	.st8{font-family:'Montserrat-Bold';}
	.st9{font-size:25px;}
</style>
<line class="st0" x1="9.35" y1="8.78" x2="134.65" y2="134.08"/>
<line class="st0" x1="9.35" y1="134.08" x2="134.65" y2="8.78"/>
<circle class="st1" cx="72.03" cy="71.21" r="36.02"/>
<g>
	<path class="st2" d="M97.52,79.97L85.19,59.41c-0.47-0.79-1.47-1.08-2.29-0.67l-1.49,0.75c-0.34,0.17-0.75,0.1-1.01-0.16
		l-6.96-6.96c-0.74-0.74-1.95-0.67-2.61,0.13L52.74,74.7v5.27H97.52z M97.52,79.97"/>
	<path class="st3" d="M65.03,66.8l7.8-14.82c-0.69-0.27-1.5-0.09-2,0.53L52.74,74.7v5.27h12.29V66.8z M65.03,66.8"/>
	<path class="st4" d="M71.43,63.39c-0.65-0.57-1.61-0.58-2.28-0.02l-4.12,3.43l-4.9-2.1c-0.73-0.31-1.59-0.09-2.08,0.54L46.59,79.97
		H90.5L71.43,63.39z M71.43,63.39"/>
	<path class="st5" d="M60.13,64.7c-0.73-0.31-1.59-0.09-2.08,0.54L46.59,79.97h24.59L65.03,66.8L60.13,64.7z M60.13,64.7"/>
	<g>
		<path class="st4" d="M60.13,64.7c-0.73-0.31-1.59-0.09-2.08,0.54L46.59,79.97h7.02l8.11-14.59L60.13,64.7z M60.13,64.7"/>
		<path class="st6" d="M99.28,79.15h-1.29l-12.1-20.16c-0.69-1.15-2.17-1.58-3.36-0.98L81,58.78l-6.99-6.98
			c-0.52-0.52-1.23-0.79-1.96-0.75c-0.73,0.04-1.41,0.38-1.87,0.95l-9.72,11.96l-0.02-0.01c-1.08-0.46-2.33-0.14-3.05,0.79
			L46.19,79.15h-1.35c-0.45,0-0.82,0.37-0.82,0.82c0,0.45,0.37,0.82,0.82,0.82h54.44c0.45,0,0.82-0.37,0.82-0.82
			C100.1,79.52,99.73,79.15,99.28,79.15L99.28,79.15z M71.47,53.02c0.17-0.21,0.41-0.33,0.68-0.34c0.27-0.01,0.52,0.08,0.71,0.27
			l7.06,7.06l-0.39,1.33c-0.13,0.44,0.12,0.89,0.56,1.02c0.08,0.02,0.15,0.03,0.23,0.03c0.36,0,0.68-0.23,0.79-0.59l0.43-1.46
			l1.74-0.87c0.43-0.22,0.97-0.06,1.22,0.36l11.59,19.31h-5.27L79.03,68.91l1.07-3.65c0.13-0.44-0.12-0.89-0.56-1.02
			c-0.44-0.13-0.89,0.12-1.02,0.56l-0.86,2.93l-5.69-4.95c-0.96-0.83-2.37-0.85-3.34-0.04l-3.73,3.11l-2.85-1.22L71.47,53.02z
			 M71.7,79.15l-5.66-12.12L69.68,64c0.35-0.29,0.86-0.29,1.21,0.01L88.3,79.15H71.7z M58.7,65.74c0.26-0.33,0.72-0.45,1.11-0.28
			l4.61,1.98l5.47,11.72H55.02l3.71-6.68c0.22-0.4,0.08-0.9-0.32-1.12c-0.4-0.22-0.9-0.08-1.12,0.32l-4.16,7.48h-4.86L58.7,65.74z
			 M58.7,65.74"/>
	</g>
</g>
<rect x="60.45" y="11.16" class="st7" width="23.09" height="23.09"/>
<text transform="matrix(1 0 0 1 62.6691 29.7137)" class="st3 st8 st9">V</text>
<rect x="60.52" y="112.53" class="st7" width="23.09" height="23.09"/>
<text transform="matrix(1 0 0 1 62.8724 131.0817)" class="st3 st8 st9">R</text>
<rect x="109.97" y="60.72" class="st7" width="23.09" height="23.09"/>
<text transform="matrix(1 0 0 1 111.19 79.2708)" class="st4 st8 st9">D</text>
<rect x="11.01" y="60.96" class="st7" width="23.09" height="23.09"/>
<text transform="matrix(1 0 0 1 12.9764 79.5058)" class="st4 st8 st9">A</text>
</svg>
