<svg id="Layer_1" data-name="Layer 1" xmlns="http://www.w3.org/2000/svg" viewBox="0 0 379.47 81.79"><defs><style>.cls-1{fill:#9c7a97;}.cls-2{fill:#98d4c2;}.cls-3{fill:none;stroke:#9c7a97;stroke-linecap:round;stroke-miterlimit:10;stroke-width:2.3px;}</style></defs><path class="cls-1" d="M64.63,28.49,50.34,61.84H41.05L26.8,28.49H37l9,21.72,9.24-21.72Z" transform="translate(-25.49 -28.49)"/><path class="cls-1" d="M82.21,43.9c1.74,1.5,2.6,3.81,2.6,6.91v11H78.33V59.27q-1.5,2.9-5.87,2.9a9.14,9.14,0,0,1-4-.81,5.91,5.91,0,0,1-2.55-2.18,5.79,5.79,0,0,1-.86-3.13,5.09,5.09,0,0,1,2.16-4.38q2.18-1.56,6.67-1.56h4C77.73,48,76.32,47,73.64,47a9.54,9.54,0,0,0-2.9.46,7.67,7.67,0,0,0-2.49,1.26L65.9,44a12.76,12.76,0,0,1,4-1.71,19.19,19.19,0,0,1,4.74-.6Q79.61,41.65,82.21,43.9ZM76.53,57.18a3.26,3.26,0,0,0,1.32-1.72V53.74h-3c-2,0-3,.67-3,2a1.77,1.77,0,0,0,.69,1.46,3,3,0,0,0,1.91.55A3.78,3.78,0,0,0,76.53,57.18Z" transform="translate(-25.49 -28.49)"/><path class="cls-1" d="M95.77,60.85a10.17,10.17,0,0,1-4-14.27,9.78,9.78,0,0,1,4-3.63,13,13,0,0,1,5.9-1.3,11.33,11.33,0,0,1,5.83,1.44,8,8,0,0,1,3.48,4l-5.39,2.74a4.26,4.26,0,0,0-4-2.67,4.18,4.18,0,0,0-3.1,1.25,4.67,4.67,0,0,0-1.23,3.44,4.8,4.8,0,0,0,1.23,3.5,4.15,4.15,0,0,0,3.1,1.26,4.26,4.26,0,0,0,4-2.67L111,56.71a8,8,0,0,1-3.48,4,11.23,11.23,0,0,1-5.83,1.45A12.87,12.87,0,0,1,95.77,60.85Z" transform="translate(-25.49 -28.49)"/><path class="cls-1" d="M131.65,43.9c1.73,1.5,2.6,3.81,2.6,6.91v11h-6.48V59.27c-1,1.93-3,2.9-5.87,2.9a9.1,9.1,0,0,1-4-.81,5.63,5.63,0,0,1-3.41-5.31,5.09,5.09,0,0,1,2.16-4.38c1.44-1,3.67-1.56,6.67-1.56h4Q127.11,47,123.07,47a9.52,9.52,0,0,0-2.89.46,7.67,7.67,0,0,0-2.49,1.26L115.34,44a12.8,12.8,0,0,1,4-1.71,19.27,19.27,0,0,1,4.75-.6Q129.05,41.65,131.65,43.9ZM126,57.18a3.26,3.26,0,0,0,1.32-1.72V53.74h-3c-2,0-3,.67-3,2a1.76,1.76,0,0,0,.7,1.46,3,3,0,0,0,1.9.55A3.79,3.79,0,0,0,126,57.18Z" transform="translate(-25.49 -28.49)"/><path class="cls-1" d="M154.37,61a7.09,7.09,0,0,1-2.14.85,12.28,12.28,0,0,1-2.7.29,8.55,8.55,0,0,1-6-1.91,7.31,7.31,0,0,1-2.09-5.68V47.91h-2.89v-5.2h2.89V37.54h7v5.17H153v5.2h-4.55v6.6a2.35,2.35,0,0,0,.57,1.67,2,2,0,0,0,1.52.6,3.73,3.73,0,0,0,2.13-.62Z" transform="translate(-25.49 -28.49)"/><path class="cls-1" d="M159.46,38.71a3.39,3.39,0,0,1-1.17-2.63,3.43,3.43,0,0,1,1.17-2.64,4.42,4.42,0,0,1,3.08-1.07,4.57,4.57,0,0,1,3.08,1A3.27,3.27,0,0,1,166.79,36a3.57,3.57,0,0,1-1.17,2.73,4.37,4.37,0,0,1-3.08,1.08A4.42,4.42,0,0,1,159.46,38.71Zm-.4,3.27h7V61.84h-7Z" transform="translate(-25.49 -28.49)"/><path class="cls-1" d="M176.76,60.85a10.18,10.18,0,0,1-4-14.26,9.76,9.76,0,0,1,4-3.64,12.48,12.48,0,0,1,5.78-1.3,12.61,12.61,0,0,1,5.79,1.3,9.62,9.62,0,0,1,4,3.63,10.54,10.54,0,0,1,0,10.6,9.77,9.77,0,0,1-4,3.67,13.29,13.29,0,0,1-11.55,0Zm8.76-5.48a5,5,0,0,0,1.17-3.5,4.81,4.81,0,0,0-1.17-3.44,4.24,4.24,0,0,0-6,0,4.81,4.81,0,0,0-1.17,3.44,5,5,0,0,0,1.17,3.5,4.21,4.21,0,0,0,6,0Z" transform="translate(-25.49 -28.49)"/><path class="cls-1" d="M217.86,43.84c1.5,1.47,2.26,3.68,2.26,6.64V61.84h-7V51.61q0-4.06-3.26-4.06A3.73,3.73,0,0,0,207,48.72a5,5,0,0,0-1.08,3.52v9.6h-7V42h6.63v2.16a7.83,7.83,0,0,1,2.79-1.85,9.38,9.38,0,0,1,3.52-.64A8.18,8.18,0,0,1,217.86,43.84Z" transform="translate(-25.49 -28.49)"/><path class="cls-1" d="M256,53h-5.14v8.86h-9.44V28.49H256.7a19,19,0,0,1,7.86,1.5,11.69,11.69,0,0,1,5.15,4.29,11.81,11.81,0,0,1,1.81,6.55,11.67,11.67,0,0,1-1.69,6.31A11.5,11.5,0,0,1,265,51.36l7.19,10.48h-10.1Zm4.48-15.77a6.49,6.49,0,0,0-4.38-1.29h-5.24v9.77h5.24a6.6,6.6,0,0,0,4.38-1.26,4.47,4.47,0,0,0,1.48-3.6A4.53,4.53,0,0,0,260.51,37.21Z" transform="translate(-25.49 -28.49)"/><path class="cls-1" d="M297,53.67H282.55A4.1,4.1,0,0,0,284.26,56a5.68,5.68,0,0,0,3.17.82,6.8,6.8,0,0,0,2.47-.4A7.33,7.33,0,0,0,292,55.13l3.66,3.81q-2.9,3.23-8.46,3.23a13.51,13.51,0,0,1-6.12-1.32A10,10,0,0,1,280.87,43a12.53,12.53,0,0,1,11-.1,9.38,9.38,0,0,1,3.83,3.56,10.43,10.43,0,0,1,1.41,5.51C297.1,52,297.07,52.57,297,53.67Zm-13.17-6.16A4.16,4.16,0,0,0,282.44,50h8.14a4.15,4.15,0,0,0-1.37-2.49,4.41,4.41,0,0,0-5.39,0Z" transform="translate(-25.49 -28.49)"/><path class="cls-1" d="M321.24,43.84q2.25,2.2,2.25,6.64V61.84h-7V51.61q0-4.06-3.27-4.06a3.72,3.72,0,0,0-2.87,1.17,5,5,0,0,0-1.08,3.52v9.6h-7V42H309v2.16a7.88,7.88,0,0,1,2.78-1.85,9.42,9.42,0,0,1,3.52-.64A8.2,8.2,0,0,1,321.24,43.84Z" transform="translate(-25.49 -28.49)"/><path class="cls-1" d="M343.57,61a7,7,0,0,1-2.14.85,12.28,12.28,0,0,1-2.7.29,8.55,8.55,0,0,1-6-1.91,7.31,7.31,0,0,1-2.09-5.68V47.91h-2.89v-5.2h2.89V37.54h7v5.17h4.55v5.2h-4.55v6.6a2.35,2.35,0,0,0,.57,1.67,2,2,0,0,0,1.52.6,3.73,3.73,0,0,0,2.13-.62Z" transform="translate(-25.49 -28.49)"/><path class="cls-1" d="M364.28,43.9c1.73,1.5,2.6,3.81,2.6,6.91v11h-6.49V59.27q-1.5,2.9-5.86,2.9a9.1,9.1,0,0,1-4-.81A5.8,5.8,0,0,1,348,59.18a5.71,5.71,0,0,1-.86-3.13,5.09,5.09,0,0,1,2.16-4.38q2.16-1.56,6.67-1.56h4C359.79,48,358.39,47,355.7,47a9.47,9.47,0,0,0-2.89.46,7.67,7.67,0,0,0-2.49,1.26L348,44a12.8,12.8,0,0,1,4-1.71,19.27,19.27,0,0,1,4.75-.6C360,41.65,362.54,42.4,364.28,43.9ZM358.6,57.18a3.26,3.26,0,0,0,1.32-1.72V53.74h-3c-2,0-3,.67-3,2a1.76,1.76,0,0,0,.7,1.46,3,3,0,0,0,1.9.55A3.79,3.79,0,0,0,358.6,57.18Z" transform="translate(-25.49 -28.49)"/><path class="cls-1" d="M373.29,34.65h7V61.84h-7Z" transform="translate(-25.49 -28.49)"/><path class="cls-1" d="M389.09,61.6a13,13,0,0,1-3.89-1.48l2.09-4.77a11.93,11.93,0,0,0,3.23,1.34,14.37,14.37,0,0,0,3.7.49,6,6,0,0,0,2.4-.34,1.11,1.11,0,0,0,.71-1c0-.44-.28-.75-.86-.94a17.92,17.92,0,0,0-2.73-.53,25.93,25.93,0,0,1-4.05-.77,6.11,6.11,0,0,1-2.87-1.76,5,5,0,0,1-1.21-3.59,5.41,5.41,0,0,1,1.13-3.39,7.48,7.48,0,0,1,3.32-2.34,14.06,14.06,0,0,1,5.22-.86,20.69,20.69,0,0,1,4.29.44,12.07,12.07,0,0,1,3.55,1.24L401,48.06a11.51,11.51,0,0,0-5.71-1.47,5.63,5.63,0,0,0-2.42.39,1.14,1.14,0,0,0-.77,1c0,.46.28.78.84,1a20.28,20.28,0,0,0,2.79.57,30.14,30.14,0,0,1,4.07.84,6.31,6.31,0,0,1,2.8,1.74,5,5,0,0,1,1.19,3.54A5.37,5.37,0,0,1,402.68,59a7.4,7.4,0,0,1-3.35,2.33,15.1,15.1,0,0,1-5.33.84A21.32,21.32,0,0,1,389.09,61.6Z" transform="translate(-25.49 -28.49)"/><path class="cls-2" d="M48.94,104.36H37l-2.22,5.48H26.64L39.1,81.62H47l12.5,28.22H51.15ZM46.6,98.47l-3.63-9-3.63,9Z" transform="translate(-25.49 -28.49)"/><path class="cls-2" d="M74.92,88.37a11.69,11.69,0,0,1,4.29-.74v6.89a15.85,15.85,0,0,0-1.73-.12,4.77,4.77,0,0,0-5.24,5.4v10H64.58V88h7.29v2.62A7.22,7.22,0,0,1,74.92,88.37Z" transform="translate(-25.49 -28.49)"/><path class="cls-2" d="M89.61,108.75a10.79,10.79,0,0,1-6-9.88,10.76,10.76,0,0,1,6-9.81,14.86,14.86,0,0,1,12.72,0,10.7,10.7,0,0,1,4.4,4,11.63,11.63,0,0,1,0,11.67,10.86,10.86,0,0,1-4.4,4,14.63,14.63,0,0,1-12.7,0Zm9.64-6a5.43,5.43,0,0,0,1.29-3.85,5.33,5.33,0,0,0-1.29-3.79,4.67,4.67,0,0,0-6.61,0,5.33,5.33,0,0,0-1.29,3.79,5.43,5.43,0,0,0,1.29,3.85,4.62,4.62,0,0,0,6.61,0Z" transform="translate(-25.49 -28.49)"/><path class="cls-2" d="M137.62,88v21.85h-7.29V107.5a7.91,7.91,0,0,1-2.91,2,9.54,9.54,0,0,1-3.58.68,9.17,9.17,0,0,1-6.76-2.5c-1.68-1.66-2.51-4.16-2.51-7.5V88h7.65V99a5.61,5.61,0,0,0,.93,3.59,3.31,3.31,0,0,0,2.7,1.13,3.82,3.82,0,0,0,3-1.27A5.68,5.68,0,0,0,130,98.51V88Z" transform="translate(-25.49 -28.49)"/><path class="cls-2" d="M166.14,90.05c1.66,1.61,2.48,4,2.48,7.29v12.5H161V98.59q0-4.47-3.58-4.47a4.1,4.1,0,0,0-3.17,1.29A5.55,5.55,0,0,0,153,99.28v10.56h-7.66V88h7.3v2.38a8.65,8.65,0,0,1,3.06-2,10.44,10.44,0,0,1,3.87-.7A8.93,8.93,0,0,1,166.14,90.05Z" transform="translate(-25.49 -28.49)"/><path class="cls-2" d="M199.78,79.93v29.91h-7.29v-2.18c-1.43,1.7-3.56,2.54-6.41,2.54a10.82,10.82,0,0,1-5.44-1.39,10,10,0,0,1-3.89-4,12,12,0,0,1-1.43-6,11.9,11.9,0,0,1,1.43-5.94A9.87,9.87,0,0,1,180.64,89a10.91,10.91,0,0,1,5.44-1.37,8,8,0,0,1,6,2.25V79.93ZM191,102.72a6.34,6.34,0,0,0,0-7.64,4.65,4.65,0,0,0-6.59,0,5.33,5.33,0,0,0-1.29,3.79,5.43,5.43,0,0,0,1.29,3.85,4.58,4.58,0,0,0,6.57,0Z" transform="translate(-25.49 -28.49)"/><path class="cls-2" d="M216.3,82.06h13.35a18.6,18.6,0,0,1,8.22,1.74,13,13,0,0,1,5.56,4.91,15,15,0,0,1,0,14.92,13.07,13.07,0,0,1-5.56,4.92,18.6,18.6,0,0,1-8.22,1.73H216.3Zm13,21.85a8.2,8.2,0,0,0,5.83-2,8.45,8.45,0,0,0,0-11.37,8.21,8.21,0,0,0-5.83-2.06h-5v15.48Z" transform="translate(-25.49 -28.49)"/><path class="cls-2" d="M272.26,104.11v6.17H249.6V82.06h22.13v6.17H257.5V93H270v6H257.5v5.16Z" transform="translate(-25.49 -28.49)"/><path class="cls-2" d="M306.36,82.06v28.22h-6.57l-12.46-15v15h-7.82V82.06h6.57l12.46,15v-15Z" transform="translate(-25.49 -28.49)"/><path class="cls-2" d="M343.37,82.06l-12.1,28.22h-7.86L311.36,82.06H320l7.66,18.39,7.82-18.39Z" transform="translate(-25.49 -28.49)"/><path class="cls-2" d="M370.5,104.11v6.17H347.84V82.06H370v6.17H355.74V93h12.54v6H355.74v5.16Z" transform="translate(-25.49 -28.49)"/><path class="cls-2" d="M390.09,102.78h-4.36v7.5h-8V82.06h12.9a16.17,16.17,0,0,1,6.65,1.27,9.89,9.89,0,0,1,.37,18.08l6.08,8.87h-8.54Zm3.79-13.34a5.5,5.5,0,0,0-3.71-1.09h-4.44v8.27h4.44a5.6,5.6,0,0,0,3.71-1.07,3.8,3.8,0,0,0,1.25-3A3.86,3.86,0,0,0,393.88,89.44Z" transform="translate(-25.49 -28.49)"/><line class="cls-3" x1="1.15" y1="43.51" x2="378.32" y2="43.51"/></svg>